<svg width="452" height="141" viewBox="0 0 452 141" fill="none" xmlns="http://www.w3.org/2000/svg">
<mask id="mask0_624_488" style="mask-type:luminance" maskUnits="userSpaceOnUse" x="0" y="0" width="452" height="141">
<path d="M451.92 0H0V140.54H451.92V0Z" fill="white"/>
</mask>
<g mask="url(#mask0_624_488)">
<path d="M32.55 29.5601C19.36 29.5601 9.03003 35.74 4.09003 46.24L18.89 61.12C18.89 61.05 18.89 60.99 18.89 60.91C18.89 52.35 24.4 46.4399 32.56 46.4399C40.72 46.4399 46.23 52.35 46.23 60.91C46.23 69.46 40.72 75.37 32.56 75.37C28.22 75.37 24.64 73.69 22.23 70.83L2.35999 50.86C1.40999 54.11 0.900024 57.67 0.900024 61.51V119.88H18.89V84.53H19.13C22.49 89.23 28.48 92.25 36.03 92.25C48.62 92.25 64.45 82.97 64.45 60.91C64.45 42.83 51.26 29.5699 32.55 29.5699V29.5601Z" fill="#3F424B"/>
<path d="M103.3 92.24C84.59 92.24 71.4 78.98 71.4 60.9C71.4 42.82 84.59 29.5601 103.3 29.5601C122.01 29.5601 135.19 42.82 135.19 60.9C135.19 78.98 122 92.24 103.3 92.24ZM116.96 60.9C116.96 52.35 111.45 46.4301 103.29 46.4301C95.13 46.4301 89.62 52.34 89.62 60.9C89.62 69.46 95.13 75.37 103.29 75.37C111.45 75.37 116.96 69.46 116.96 60.9Z" fill="#3F424B"/>
<path d="M179.8 57.29V56.8C179.8 48.85 176.2 46.4399 171.17 46.4399C166.14 46.4399 162.53 48.85 162.53 56.8V90.67H144.54V56.8C144.54 38.23 155.33 29.5601 171.16 29.5601C186.99 29.5601 197.78 38.24 197.78 57.28H179.8V57.29Z" fill="#3F424B"/>
<path d="M254.74 67.17C254.74 84.16 244.66 92.24 229.92 92.24C215.17 92.24 205.1 84.16 205.1 67.17V11.96H223.09V31.13H251.15V47.4H223.09V67.17C223.09 73.44 225.97 75.37 229.93 75.37C233.88 75.37 236.77 73.44 236.77 67.17V65.36H254.76V67.17H254.74Z" fill="#3F424B"/>
<path d="M338.2 90.6801V1.15002H356.19V90.6801H338.2Z" fill="#3F424B"/>
<path d="M303.09 70.98C300.67 73.74 297.14 75.37 292.87 75.37C284.72 75.37 279.2 69.46 279.2 60.9C279.2 52.35 284.71 46.4301 292.87 46.4301C301.03 46.4301 306.54 52.34 306.54 60.9C306.54 60.99 306.53 61.07 306.53 61.16L321.35 46.26C316.41 35.75 306.08 29.55 292.88 29.55C274.17 29.55 260.98 42.81 260.98 60.89C260.98 82.95 276.81 92.23 289.4 92.23C298.15 92.23 304.87 87.89 307.74 81.38H307.98V90.66H324.53V61.49C324.53 57.66 324.03 54.11 323.08 50.87L303.09 70.98Z" fill="#3F424B"/>
<path d="M441.51 29.5601C446.86 29.5601 451.2 33.9 451.2 39.25V81.64C451.2 86.99 446.86 91.33 441.51 91.33H379.6C374.25 91.33 369.91 86.99 369.91 81.64V39.25C369.91 33.9 374.25 29.5601 379.6 29.5601H441.51ZM419.26 41.86C408.16 41.86 400.34 49.72 400.34 60.45C400.34 73.53 409.73 79.04 417.2 79.04C422.39 79.04 426.38 76.47 428.08 72.61H428.22V78.12H438.03V60.8199C438.03 58.5499 437.73 56.44 437.17 54.52L425.31 66.4399H425.3C423.87 68.0799 421.78 69.04 419.24 69.04C414.41 69.04 411.13 65.53 411.13 60.46C411.13 55.39 414.4 51.88 419.24 51.88C424.08 51.88 427.35 55.38 427.35 60.46C427.35 60.51 427.35 60.56 427.35 60.62L436.14 51.79C433.22 45.54 427.09 41.86 419.26 41.86ZM383.09 78.11H393.76V42.79H383.09V78.11Z" fill="#924CCF"/>
<path d="M241.82 116.17C246.34 116.17 249.93 118.16 251.83 121.58L246.72 126.7C246.4 124.05 244.5 122.28 241.81 122.28C238.85 122.28 236.85 124.42 236.85 127.51C236.85 130.6 238.85 132.74 241.81 132.74C243.13 132.74 244.33 132.35 246.24 130.44L252.77 123.9C253.11 125.07 253.3 126.35 253.3 127.74V138.29H247.29V134.93H247.2C245.98 137.63 243.29 138.86 240.54 138.86C235.97 138.86 230.22 135.5 230.22 127.53C230.22 120.99 235.01 116.2 241.8 116.2L241.82 116.17Z" fill="#3F424B"/>
<path d="M290.3 123.07C290.13 122.07 289.26 121.5 288 121.5C286.35 121.5 285.7 122.28 285.7 123.32C285.7 126.32 297.09 123.02 297.09 131.49C297.09 135.66 293.48 138.71 287.92 138.71C282.36 138.71 278.83 135.75 278.75 131.63H285.18C285.23 132.76 286.05 133.33 287.83 133.33C289.92 133.33 290.48 132.63 290.48 131.51C290.48 128.51 279.09 131.81 279.09 123.34C279.09 119.21 282.53 116.12 287.87 116.12C293.22 116.12 296.52 119.2 296.65 123.08L290.3 123.07Z" fill="#3F424B"/>
<path d="M323.97 123.07C323.8 122.07 322.93 121.5 321.67 121.5C320.02 121.5 319.37 122.28 319.37 123.32C319.37 126.32 330.76 123.02 330.76 131.49C330.76 135.66 327.15 138.71 321.59 138.71C316.03 138.71 312.5 135.75 312.42 131.63H318.85C318.9 132.76 319.72 133.33 321.5 133.33C323.59 133.33 324.15 132.63 324.15 131.51C324.15 128.51 312.76 131.81 312.76 123.34C312.76 119.21 316.2 116.12 321.54 116.12C326.89 116.12 330.19 119.2 330.32 123.08L323.97 123.07Z" fill="#3F424B"/>
<path d="M268.47 123.25C268.3 122.25 267.43 121.68 266.17 121.68C264.52 121.68 263.87 122.46 263.87 123.5C263.87 126.5 275.26 123.2 275.26 131.67C275.26 135.84 271.65 138.89 266.09 138.89C260.53 138.89 257 135.93 256.92 131.81H263.35C263.4 132.94 264.22 133.51 266 133.51C268.09 133.51 268.65 132.81 268.65 131.69C268.65 128.69 257.26 131.99 257.26 123.52C257.26 119.39 260.7 116.3 266.04 116.3C271.39 116.3 274.69 119.38 274.82 123.26L268.47 123.25Z" fill="#3F424B"/>
<path d="M300.58 110.73C300.58 108.38 302.4 106.56 304.75 106.56C307.1 106.56 308.92 108.38 308.92 110.73C308.92 113.08 307.1 114.9 304.75 114.9C302.4 114.9 300.58 113.08 300.58 110.73ZM301.5 138.34V116.87H308.02V138.34H301.5Z" fill="#3F424B"/>
<path d="M352.25 129.86C352.25 135.99 348.6 138.9 343.25 138.9C337.9 138.9 334.25 135.99 334.25 129.86V109.95H340.77V116.86H350.94V122.73H340.77V129.86C340.77 132.12 341.81 132.82 343.25 132.82C344.69 132.82 345.73 132.12 345.73 129.86V129.21H352.25V129.86Z" fill="#3F424B"/>
<path d="M424.59 129.86C424.59 135.99 420.94 138.9 415.59 138.9C410.24 138.9 406.59 135.99 406.59 129.86V109.95H413.11V116.86H423.28V122.73H413.11V129.86C413.11 132.12 414.15 132.82 415.59 132.82C417.03 132.82 418.07 132.12 418.07 129.86V129.21H424.59V129.86Z" fill="#3F424B"/>
<path d="M362.41 129.26V129.35C362.97 131.7 364.76 132.91 367.19 132.91C369.06 132.91 370.45 132.52 371.28 131.34H378.02C376.63 135.77 372.54 138.73 367.2 138.73C360.42 138.73 355.64 133.95 355.64 127.43C355.64 120.91 360.42 116.13 367.2 116.13C373.98 116.13 378.63 120.91 378.63 127.43V129.25L362.41 129.26ZM362.55 125.04V125.13H371.94V125.04C371.2 123 369.46 121.96 367.2 121.96C364.94 121.96 363.25 123 362.55 125.04Z" fill="#3F424B"/>
<path d="M434.76 129.26V129.35C435.32 131.7 437.11 132.91 439.54 132.91C441.41 132.91 442.8 132.52 443.63 131.34H450.37C448.98 135.77 444.89 138.73 439.55 138.73C432.77 138.73 427.99 133.95 427.99 127.43C427.99 120.91 432.77 116.13 439.55 116.13C446.33 116.13 450.98 120.91 450.98 127.43V129.25L434.76 129.26ZM434.89 125.04V125.13H444.28V125.04C443.54 123 441.8 121.96 439.54 121.96C437.28 121.96 435.59 123 434.89 125.04Z" fill="#3F424B"/>
<path d="M396.72 138.28V127.15C396.72 123.76 395.07 122.33 392.63 122.33C390.2 122.33 388.54 123.76 388.54 127.15V138.28H382.02V127.15C382.02 119.93 386.28 116.24 392.63 116.24C398.98 116.24 403.24 119.89 403.24 127.15V138.28H396.72Z" fill="#3F424B"/>
</g>
</svg>
