<svg width="569" height="72" viewBox="0 0 569 72" fill="none" xmlns="http://www.w3.org/2000/svg">
<path d="M109.24 21.12C119.18 21.12 127.07 25.5 131.23 33.01L120 44.26C119.29 38.44 115.13 34.54 109.2 34.54C102.69 34.54 98.29 39.24 98.29 46.04C98.29 52.84 102.69 57.54 109.2 57.54C112.1 57.54 114.74 56.67 118.93 52.48L133.29 38.1C134.04 40.67 134.45 43.49 134.45 46.53V69.72H121.25V62.33H121.05C118.37 68.26 112.45 70.96 106.41 70.96C96.37 70.96 83.73 63.57 83.73 46.05C83.73 31.67 94.26 21.14 109.19 21.14L109.24 21.12Z" fill="#3F424B"/>
<path d="M215.81 36.28C215.43 34.08 213.52 32.84 210.75 32.84C207.12 32.84 205.69 34.56 205.69 36.85C205.69 43.44 230.72 36.1801 230.72 54.8101C230.72 63.9801 222.79 70.67 210.56 70.67C198.33 70.67 190.59 64.17 190.4 55.1H204.54C204.64 57.58 206.45 58.83 210.37 58.83C214.96 58.83 216.2 57.2999 216.2 54.8199C216.2 48.2299 191.17 55.49 191.17 36.86C191.17 27.78 198.72 21 210.47 21C222.22 21 229.48 27.78 229.77 36.29H215.82L215.81 36.28Z" fill="#3F424B"/>
<path d="M289.81 36.28C289.43 34.08 287.52 32.84 284.75 32.84C281.12 32.84 279.69 34.56 279.69 36.85C279.69 43.44 304.72 36.1801 304.72 54.8101C304.72 63.9801 296.79 70.67 284.56 70.67C272.33 70.67 264.59 64.17 264.4 55.1H278.54C278.64 57.58 280.45 58.83 284.37 58.83C288.96 58.83 290.2 57.2999 290.2 54.8199C290.2 48.2299 265.17 55.49 265.17 36.86C265.17 27.78 272.72 21 284.47 21C296.22 21 303.48 27.78 303.77 36.29H289.82L289.81 36.28Z" fill="#3F424B"/>
<path d="M167.81 36.6899C167.43 34.4899 165.52 33.25 162.75 33.25C159.12 33.25 157.69 34.97 157.69 37.26C157.69 43.85 182.72 36.59 182.72 55.22C182.72 64.39 174.79 71.08 162.56 71.08C150.33 71.08 142.59 64.58 142.4 55.51H156.54C156.64 57.99 158.45 59.24 162.37 59.24C166.96 59.24 168.2 57.71 168.2 55.23C168.2 48.64 143.17 55.9 143.17 37.27C143.17 28.19 150.72 21.41 162.47 21.41C174.22 21.41 181.48 28.19 181.77 36.7H167.82L167.81 36.6899Z" fill="#3F424B"/>
<path d="M238.4 9.17004C238.4 4.01004 242.41 0 247.57 0C252.73 0 256.74 4.01004 256.74 9.17004C256.74 14.33 252.73 18.34 247.57 18.34C242.41 18.34 238.4 14.33 238.4 9.17004ZM240.41 69.84V22.65H254.74V69.84H240.41Z" fill="#3F424B"/>
<path d="M351.96 51.21C351.96 64.68 343.94 71.08 332.18 71.08C320.42 71.08 312.4 64.68 312.4 51.21V7.44995H326.73V22.64H349.08V35.54H326.73V51.21C326.73 56.18 329.02 57.71 332.18 57.71C335.34 57.71 337.63 56.18 337.63 51.21V49.78H351.96V51.21Z" fill="#3F424B"/>
<path d="M510.96 51.21C510.96 64.68 502.94 71.08 491.18 71.08C479.42 71.08 471.4 64.68 471.4 51.21V7.44995H485.73V22.64H508.08V35.54H485.73V51.21C485.73 56.18 488.02 57.71 491.18 57.71C494.34 57.71 496.63 56.18 496.63 51.21V49.78H510.96V51.21Z" fill="#3F424B"/>
<path d="M374.3 49.9V50.09C375.54 55.25 379.46 57.92 384.81 57.92C388.92 57.92 391.98 57.06 393.79 54.48H408.6C405.54 64.22 396.56 70.72 384.81 70.72C369.91 70.72 359.4 60.21 359.4 45.88C359.4 31.55 369.91 21.04 384.81 21.04C399.71 21.04 409.94 31.55 409.94 45.88V49.89H374.31L374.3 49.9ZM374.59 40.63V40.8199H395.23V40.63C393.61 36.14 389.78 33.85 384.82 33.85C379.86 33.85 376.13 36.14 374.6 40.63H374.59Z" fill="#3F424B"/>
<path d="M533.3 49.9V50.09C534.54 55.25 538.46 57.92 543.81 57.92C547.92 57.92 550.98 57.06 552.79 54.48H567.6C564.54 64.22 555.56 70.72 543.81 70.72C528.91 70.72 518.4 60.21 518.4 45.88C518.4 31.55 528.91 21.04 543.81 21.04C558.71 21.04 568.94 31.55 568.94 45.88V49.89H533.31L533.3 49.9ZM533.59 40.63V40.8199H554.23V40.63C552.61 36.14 548.78 33.85 543.82 33.85C538.86 33.85 535.13 36.14 533.59 40.63Z" fill="#3F424B"/>
<path d="M449.69 69.73V45.27C449.69 37.82 446.06 34.67 440.71 34.67C435.36 34.67 431.73 37.82 431.73 45.27V69.73H417.4V45.27C417.4 29.41 426.76 21.29 440.71 21.29C454.66 21.29 464.02 29.31 464.02 45.27V69.73H449.69Z" fill="#3F424B"/>
<path d="M25.38 24.01C25.32 24.01 25.28 24.05 25.28 24.12C25.31 26.86 25.28 30.92 25.28 33.62V37.84C25.28 37.92 25.19 37.9699 25.12 37.9399C21.7 36.0799 18.51 34.94 14.96 36.27C11.49 37.56 9.03 39.88 7.68 43.36C5.35 49.39 8.23 56.08 14.23 58.58C19.98 60.98 26.89 57.81 29.34 52.25C29.36 52.21 29.35 52.15 29.31 52.13C27.66 50.76 26.21 49.51 24.49 48.12C24.44 48.07 24.35 48.09 24.32 48.16C24.32 48.16 24.01 49.35 23.83 49.74C22.41 52.78 19.13 53.93 16.21 52.4C13.37 50.92 12.45 47.39 14.16 44.58C15.85 41.81 18.7 41.2601 21.67 43.4301C24.01 45.1501 30.36 50.55 30.36 50.55C30.36 50.61 30.36 69.6 30.36 70.98C30.36 71.04 30.4 71.08 30.46 71.08C31.99 71.1 35.7 71.08 36.37 71.08C36.43 71.08 36.47 71.04 36.47 70.98V56.72C36.47 56.63 36.57 56.59 36.64 56.64C39.63 58.86 42.59 59.92 46.03 58.96C49.43 58.02 51.96 56.04 53.51 52.88C56.45 46.87 54 39.64 48.09 36.76C42.31 33.95 35.41 36.15 32.55 41.78C32.54 41.8 32.54 41.83 32.56 41.86L37.22 46.48C37.25 46.51 37.31 46.5 37.32 46.46C37.43 46.2 37.54 45.9599 37.6 45.8199C38.66 43.1599 40.68 41.77 43.2 41.97C45.61 42.16 47.59 43.85 48.16 46.22C48.71 48.49 47.7 50.8399 45.65 52.0699C43.37 53.4299 41.54 53.1701 39.17 51.0601C37.36 49.4401 34.94 46.94 32.9 44.89L32.86 44.85C32.37 44.35 31.9 43.88 31.46 43.46L31.37 43.37C31.33 43.33 31.28 43.29 31.25 43.25V43.24C31.23 43.22 31.22 43.2 31.22 43.17V24.13C31.22 24.08 31.17 24.03 31.12 24.03H54.33C58.36 24.03 61.63 27.3 61.63 31.34V63.78C61.63 67.82 58.36 71.09 54.33 71.09H7.3C3.27 71.09 0 67.82 0 63.78V31.34C0 27.3 3.27 24.03 7.3 24.03H25.38V24.01Z" fill="#3F424B"/>
</svg>
